<?xml version="1.0" encoding="iso-8859-1"?>
<!-- Generator: Adobe Illustrator 19.0.0, SVG Export Plug-In . SVG Version: 6.00 Build 0)  -->
<svg xmlns="http://www.w3.org/2000/svg" xmlns:xlink="http://www.w3.org/1999/xlink" version="1.1" id="Layer_1" x="0px" y="0px" viewBox="0 0 512 512" style="enable-background:new 0 0 512 512;" xml:space="preserve" width="512px" height="512px">
<g>
	<g>
		<path d="M401.6,395.328c-10.091-20.736-60.267-128.107-60.267-213.995c0-76.459-62.208-138.667-138.667-138.667    S64,104.875,64,181.333c0,85.931-50.219,193.344-60.267,213.995C1.259,400.363,0,405.781,0,411.413    C0,431.595,16.405,448,36.587,448h332.16c20.16,0,36.587-16.405,36.587-36.587C405.333,405.781,404.075,400.363,401.6,395.328z     M368.747,426.667H36.587c-8.427,0-15.253-6.848-15.253-15.253c0-2.347,0.512-4.587,1.557-6.72    c14.656-30.059,62.443-135.019,62.443-223.36C85.333,116.629,137.984,64,202.667,64S320,116.629,320,181.333    c0,88.341,47.787,193.301,62.443,223.36v0.021c1.045,2.112,1.557,4.352,1.557,6.699C384,419.819,377.173,426.667,368.747,426.667z    " fill="#FFFFFF"/>
	</g>
</g>
<g>
	<g>
		<path d="M202.667,85.333c-52.949,0-96,43.072-96,96c0,76.416-33.6,163.755-53.632,209.024c-2.389,5.376,0.043,11.691,5.44,14.059    c1.387,0.619,2.859,0.917,4.309,0.917c4.096,0,8-2.368,9.749-6.357C93.248,352.171,128,261.675,128,181.333    c0-41.173,33.493-74.667,74.667-74.667c5.888,0,10.667-4.779,10.667-10.667S208.555,85.333,202.667,85.333z" fill="#FFFFFF"/>
	</g>
</g>
<g>
	<g>
		<path d="M266.667,426.667c-5.888,0-10.667,4.779-10.667,10.667c0,29.397-23.915,53.333-53.333,53.333    c-29.419,0-53.333-23.936-53.333-53.333c0-5.888-4.779-10.667-10.667-10.667S128,431.445,128,437.333    C128,478.507,161.493,512,202.667,512s74.667-33.493,74.667-74.667C277.333,431.445,272.555,426.667,266.667,426.667z" fill="#FFFFFF"/>
	</g>
</g>
<g>
	<g>
		<path d="M202.667,0c-29.419,0-53.333,23.936-53.333,53.333C149.333,59.221,154.112,64,160,64s10.667-4.779,10.667-10.667    c0-17.643,14.357-32,32-32c17.643,0,32,14.357,32,32c0,5.888,4.779,10.667,10.667,10.667S256,59.221,256,53.333    C256,23.936,232.085,0,202.667,0z" fill="#FFFFFF"/>
	</g>
</g>
<g>
	<g>
		<path d="M501.333,64h-22.741l31.616-47.424c2.176-3.264,2.389-7.467,0.512-10.944C508.885,2.176,505.28,0,501.333,0h-42.667    C452.779,0,448,4.779,448,10.667s4.779,10.667,10.667,10.667h22.72l-31.595,47.424c-2.176,3.264-2.389,7.467-0.512,10.944    c1.835,3.456,5.44,5.632,9.387,5.632h42.667c5.888,0,10.667-4.779,10.667-10.667S507.221,64,501.333,64z" fill="#FFFFFF"/>
	</g>
</g>
<g>
	<g>
		<path d="M437.333,149.333h-63.147l71.467-89.344c2.581-3.2,3.072-7.595,1.28-11.285c-1.771-3.691-5.504-6.037-9.6-6.037H352    c-5.888,0-10.667,4.779-10.667,10.667S346.112,64,352,64h63.147l-71.467,89.344c-2.581,3.2-3.072,7.595-1.28,11.285    c1.771,3.691,5.504,6.037,9.6,6.037h85.333c5.888,0,10.667-4.779,10.667-10.667S443.221,149.333,437.333,149.333z" fill="#FFFFFF"/>
	</g>
</g>
<g>
</g>
<g>
</g>
<g>
</g>
<g>
</g>
<g>
</g>
<g>
</g>
<g>
</g>
<g>
</g>
<g>
</g>
<g>
</g>
<g>
</g>
<g>
</g>
<g>
</g>
<g>
</g>
<g>
</g>
</svg>
